<?xml version="1.0" standalone="no"?><!DOCTYPE svg PUBLIC "-//W3C//DTD SVG 1.1//EN" "http://www.w3.org/Graphics/SVG/1.1/DTD/svg11.dtd"><svg t="1538212640419" class="icon" style="" viewBox="0 0 1024 1024" version="1.1" xmlns="http://www.w3.org/2000/svg" p-id="7455" xmlns:xlink="http://www.w3.org/1999/xlink" width="77" height="77"><defs><style type="text/css"></style></defs><path d="M64 512c0-247.039 200.961-448 448-448s448 200.961 448 448S759.039 960 512 960 64 759.039 64 512zM128 512c0 211.744 172.256 384 384 384s384-172.256 384-384S723.744 128 512 128 128 300.256 128 512z" p-id="7456" fill="#e5e5e5"></path><path d="M362.272 535.971l160.255 158.496c6.241 6.145 14.369 9.248 22.497 9.248 8.255 0 16.512-3.169 22.751-9.504 12.416-12.576 12.32-32.801-0.256-45.248L430.112 513.058 566.4 376.386c12.48-12.513 12.449-32.768-0.064-45.248-12.513-12.513-32.768-12.449-45.248 0.064L362.176 490.561c-0.031 0.033-0.031 0.064-0.064 0.096-0.033 0.031-0.064 0.031-0.096 0.064-2.943 2.976-5.056 6.432-6.592 10.048-0.064 0.127-0.224 0.256-0.256 0.384C350.399 512.767 352.768 526.592 362.272 535.971z" p-id="7457" fill="#e5e5e5"></path></svg>